<svg width="480" height="230" viewBox="0 0 480 230" fill="none" xmlns="http://www.w3.org/2000/svg" xmlns:xlink="http://www.w3.org/1999/xlink">
<path d="M56 207C69.2548 207 80 196.255 80 183C80 169.745 69.2548 159 56 159C42.7452 159 32 169.745 32 183C32 196.255 42.7452 207 56 207Z" fill="url(#pattern0_758_996)"/>
<path d="M104 52C104 40.954 112.954 32 124 32H438C449.046 32 458 40.954 458 52V150C458 161.046 449.046 170 438 170H104V52Z" fill="white"/>
<path d="M224 48H133C130.239 48 128 50.2386 128 53C128 55.7614 130.239 58 133 58H224C226.761 58 229 55.7614 229 53C229 50.2386 226.761 48 224 48Z" fill="#ECEFF1"/>
<path d="M287 48H242C239.239 48 237 50.2386 237 53C237 55.7614 239.239 58 242 58H287C289.761 58 292 55.7614 292 53C292 50.2386 289.761 48 287 48Z" fill="#ECEFF1"/>
<path d="M331 48H305C302.239 48 300 50.2386 300 53C300 55.7614 302.239 58 305 58H331C333.761 58 336 55.7614 336 53C336 50.2386 333.761 48 331 48Z" fill="#ECEFF1"/>
<path d="M383 48H349C346.239 48 344 50.2386 344 53C344 55.7614 346.239 58 349 58H383C385.761 58 388 55.7614 388 53C388 50.2386 385.761 48 383 48Z" fill="#ECEFF1"/>
<path d="M429 48H401C398.239 48 396 50.2386 396 53C396 55.7614 398.239 58 401 58H429C431.761 58 434 55.7614 434 53C434 50.2386 431.761 48 429 48Z" fill="#ECEFF1"/>
<path d="M172 66H133C130.239 66 128 68.2386 128 71C128 73.7614 130.239 76 133 76H172C174.761 76 177 73.7614 177 71C177 68.2386 174.761 66 172 66Z" fill="#ECEFF1"/>
<path d="M299 66H190C187.239 66 185 68.2386 185 71C185 73.7614 187.239 76 190 76H299C301.761 76 304 73.7614 304 71C304 68.2386 301.761 66 299 66Z" fill="#ECEFF1"/>
<path d="M331 66H317C314.239 66 312 68.2386 312 71C312 73.7614 314.239 76 317 76H331C333.761 76 336 73.7614 336 71C336 68.2386 333.761 66 331 66Z" fill="#ECEFF1"/>
<path d="M401 66H349C346.239 66 344 68.2386 344 71C344 73.7614 346.239 76 349 76H401C403.761 76 406 73.7614 406 71C406 68.2386 403.761 66 401 66Z" fill="#ECEFF1"/>
<path d="M185 84H133C130.239 84 128 86.2386 128 89C128 91.7614 130.239 94 133 94H185C187.761 94 190 91.7614 190 89C190 86.2386 187.761 84 185 84Z" fill="#ECEFF1"/>
<path d="M223 84H203C200.239 84 198 86.2386 198 89C198 91.7614 200.239 94 203 94H223C225.761 94 228 91.7614 228 89C228 86.2386 225.761 84 223 84Z" fill="#ECEFF1"/>
<path d="M175 126H133C130.239 126 128 128.239 128 131C128 133.761 130.239 136 133 136H175C177.761 136 180 133.761 180 131C180 128.239 177.761 126 175 126Z" fill="#ECEFF1"/>
<path d="M270 126H193C190.239 126 188 128.239 188 131C188 133.761 190.239 136 193 136H270C272.761 136 275 133.761 275 131C275 128.239 272.761 126 270 126Z" fill="#ECEFF1"/>
<path d="M360 126H288C285.239 126 283 128.239 283 131C283 133.761 285.239 136 288 136H360C362.761 136 365 133.761 365 131C365 128.239 362.761 126 360 126Z" fill="#ECEFF1"/>
<path d="M406 126H378C375.239 126 373 128.239 373 131C373 133.761 375.239 136 378 136H406C408.761 136 411 133.761 411 131C411 128.239 408.761 126 406 126Z" fill="#ECEFF1"/>
<path d="M147 144H133C130.239 144 128 146.239 128 149C128 151.761 130.239 154 133 154H147C149.761 154 152 151.761 152 149C152 146.239 149.761 144 147 144Z" fill="#ECEFF1"/>
<path d="M215 144H165C162.239 144 160 146.239 160 149C160 151.761 162.239 154 165 154H215C217.761 154 220 151.761 220 149C220 146.239 217.761 144 215 144Z" fill="#ECEFF1"/>
<path d="M254 144H233C230.239 144 228 146.239 228 149C228 151.761 230.239 154 233 154H254C256.761 154 259 151.761 259 149C259 146.239 256.761 144 254 144Z" fill="#ECEFF1"/>
<defs>
<pattern id="pattern0_758_996" patternContentUnits="objectBoundingBox" width="1" height="1">
<use xlink:href="#image0_758_996" transform="scale(0.005)"/>
</pattern>

</defs>
</svg>
